# xmcd
#
# Track frame offsets:
# 183
# 18008
# 36705
# 58458
# 76073
# 97595
# 117768
# 136705
# 154310
# 174858
# 197370
# 213970
#
# Disc length: 3113 seconds
#
#
# Revision: 3
# Processed by: cddbd v1.4PL0 Copyright (c) Steve Scherf et al.
# Submitted via: FreeRIP 2.52 
#
DISCID=8d0c270c
DTITLE=Thomas Helmig [Rythm] - Rythm
DYEAR=1992
DGENRE=Pop
TTITLE0=Good Time
TTITLE1=Dont Need A Cover
TTITLE2=A Match For You
TTITLE3=Love Is The Miracle
TTITLE4=Anything Will Crumble
TTITLE5=House Of Love
TTITLE6=Treat Me Right
TTITLE7=That Don't Mean A Thing
TTITLE8=Who Knows
TTITLE9=Landslide Of Love
TTITLE10=Memphis Blues Again
TTITLE11=Good Time Rewind
EXTD=
EXTT0=
EXTT1=
EXTT2=
EXTT3=
EXTT4=(Nowadays)
EXTT5=
EXTT6=
EXTT7=
EXTT8=
EXTT9=
EXTT10=
EXTT11=
PLAYORDER=
